<?xml version="1.0" standalone="no"?><!DOCTYPE svg PUBLIC "-//W3C//DTD SVG 1.1//EN" "http://www.w3.org/Graphics/SVG/1.1/DTD/svg11.dtd"><svg t="1734769006313" class="icon" viewBox="0 0 1024 1024" version="1.1" xmlns="http://www.w3.org/2000/svg" p-id="6000" xmlns:xlink="http://www.w3.org/1999/xlink" width="200" height="200"><path d="M177.976333 464.27779c-3.307637-98.815666-6.519862-197.631332-10.018324-296.415194-0.445259-12.944312 2.035469-16.538187 16.347361-12.435444 104.349598 29.895953 211.593378 45.60723 319.536851 47.261049 99.928813 1.558406 199.316955-13.484983 296.892257-37.051899 13.707613-3.307637 27.765071-5.788365 40.995621-10.558997 12.053794-4.325372 14.82076-1.622014 14.343697 10.718018-1.781036 45.702643-2.512532 91.43709-3.975526 137.139733-4.866043 150.688325-9.922912 301.344846-14.757151 452.033171-1.622014 50.568687-34.507563 86.06218-85.012641 86.380222-150.211262 1.017735-300.422524 0.60428-450.633786 0.636084-13.580396 0-27.288008 0.190825-40.709383-1.494798-43.476349-5.533932-71.877504-37.624375-73.340497-81.577787-3.244029-98.211386-6.519862-196.422772-9.763891-294.634158h0.095412z" fill="#123450" p-id="6001"></path><path d="M221.230052 801.974842c-14.788955-12.817095-17.683138-30.436625-18.192005-48.310588-1.781036-60.777836-1.876448-121.619281-4.738827-182.301705-1.20856-25.729602-3.148616-51.395596-2.766965-77.188806 6.424449-1.462993 8.905178 3.689288 11.19508 7.601205 14.057459 23.980371 31.136317 45.798056 47.261049 68.315433 3.0214 4.198155 9.98652 9.573066 0.667888 14.916172-3.466658 1.017735-7.473988-0.699693-11.862968 3.053204 5.21589 7.378576 14.025655 8.587135 21.149796 12.276423 4.866043 2.512532 12.467249 3.880113 12.340032 9.795696-0.190825 8.01466-9.127807 6.20182-14.439109 8.364506-1.653819 0.667888-3.530267 0.858714-5.406715 3.466658 4.484393 5.406715 11.036059 8.809765 16.347361 13.580396 4.070938 3.657484 9.859304 7.314967 7.41038 13.580395-2.003665 5.088673-8.173681 4.643414-13.071528 5.088673-3.085008 0.254434-6.170016-0.063608-11.036059 0.699693 4.484393 5.661149 10.272758 8.714352 14.439109 13.262353 2.79877 3.053204 7.728422 5.629344 6.074603 10.463584-1.59021 4.643414-6.901513 4.420785-11.131472 5.152281-4.770631 0.826909-9.636674-0.826909-14.502717 0.572476 7.728422 5.343107 14.661739 11.354101 21.754076 17.110662 4.261764 3.466658 9.859304 7.664813 7.696618 13.6122-2.544336 7.092338-10.145542 5.470323-16.124732 5.661149-8.777961 0.286238-17.746747-5.438519-28.337547 2.289903 38.292263-0.222629 45.352797 29.832345 57.470199 54.957667-19.114327 22.326552-50.091623 32.59931-72.195547 23.98037zM826.336864 546.046402c-1.399385 64.594341-2.162686 129.188682-4.548002 193.751219-0.795105 21.690468-1.017735 44.6213-18.096593 62.0182-23.884958 9.859304-58.169892-0.667888-75.216945-23.089853 6.074603-16.983446 19.81402-29.291673 27.892288-45.098363 2.735162-5.343107 8.936982-5.979191 14.59813-6.551666 5.756561-0.60428 12.117402 0.954126 17.3969-3.530267-4.198155-7.569401-10.018325-4.484393-15.075193-3.7847-6.138212 0.858714-12.244619 1.749231-18.414635 0.890517-4.198155-0.572476-9.22322-0.731497-10.399975-5.947386-0.890518-3.911917 1.908252-7.060534 4.643414-9.509458 8.237289-7.378576 17.047054-14.057459 26.047644-21.308817-8.269093-1.144951-19.750412 3.466658-22.61279-5.883778-3.180421-10.336367 10.20915-13.739417 15.011585-20.927167-0.063608-1.526602-0.826909-2.19449-2.289903-2.448924-7.060534-1.144951-17.3969 2.003665-20.068453-5.692953-3.180421-9.159611 7.283163-12.785291 13.294158-17.683138 3.307637-2.703357 7.569401-4.229959 9.795695-8.205485 0.286238-1.272168-0.127217-2.321707-1.272168-3.053204-5.947386-3.752896-18.032984-0.795105-18.064789-9.350436-0.031804-8.746156 11.703948-9.127807 18.510048-12.880703 5.184085-2.830574 12.085598-2.894183 15.266018-9.032395-4.961456-7.919247-22.072119 8.714352-20.958971-10.749821 22.835419-25.41156 41.027425-54.480604 62.972326-81.418766 3.116812 17.237879 4.61161 33.299003 1.590211 49.487344z" fill="#1A547E" p-id="6002"></path><path d="M588.568624 215.568904c10.5908-7.060534 22.390161-2.289903 33.617045-3.434854 5.152281 9.414045-0.031804 18.096593-2.671553 26.556511-9.127807 29.228065-18.22381 58.519738-35.461689 89.083579 34.730192-36.193186 63.44939-71.432245 88.034041-109.978942 3.339442-5.247694 7.092338-10.113737 12.78529-13.039724l19.050719-3.530267c4.99326 6.233624 1.558406 11.767556-1.844644 16.919838-19.718607 29.895953-39.62804 59.696493-60.555207 83.454234 13.866634-12.976116 33.299003-25.888623 50.886729-41.154641 21.149797-18.351026 41.409075-37.020095 56.03901-61.127683 1.653819-2.735162 4.643414-3.975526 7.060533-5.883778 4.707022-2.607945 9.573066-4.38898 15.075194-3.562071 8.110072 12.848899-0.699693 22.517377-6.901513 31.83601-15.520452 23.248874-35.684318 42.363202-56.961332 60.237165-26.906358 22.61279-55.084884 43.603566-84.058514 63.512998-4.61161 3.180421-9.096003 6.392645-11.576731 11.672143-28.305743 16.760816-60.332578 23.757741-91.023636 34.189521-2.894183 0.98593-6.106407 0-7.982855-3.085008-3.498463-7.124142-2.258099-14.407305-0.82691-21.722272 7.951051-41.122838 15.584061-82.341088 23.089853-123.527534 1.558406-8.491723 2.862378-17.142467 9.636674-23.471504 8.905178 0.254434 16.983446-5.692953 26.143057-3.625679-14.248284 35.684318-16.283753 74.04019-24.457434 111.060285-2.226294 10.081933-3.657484 20.322887-5.406715 27.637855 22.771811-34.507563 39.469019-74.517253 52.731373-116.148958 2.894183-9.00059 4.134547-16.601795-4.420785-22.867224z" fill="#16476C" p-id="6003"></path><path d="M317.596795 201.066186c6.329037 1.20856 12.62627 2.448924 18.955306 3.657484 10.018325 4.102742 13.580396 13.898438 19.114328 21.849489a900.090816 900.090816 0 0 0 82.182066 101.773457c-15.774886-29.291673-25.316147-60.491599-35.429885-91.500699-2.639749-8.110072-6.138212-16.506383 0.413455-24.552846 10.081933 0.763301 20.704538-3.625679 30.182191 3.085008-7.41038 5.883778-7.601205 13.039724-4.897848 21.531447 13.00792 40.772991 30.850079 79.287884 52.763177 116.085349-8.936982-45.702643-14.979781-91.850545-25.952232-137.076125 7.951051-1.749231 14.979781 2.226294 22.453769 3.498463 7.664813 3.880113 8.873373 11.385906 10.081934 18.60546 6.837904 41.154642 15.043389 82.05485 22.358356 123.145883 1.399385 7.855639 1.622014 15.838494-0.60428 23.662329-3.816505 5.59754-9.541262 5.343107-14.788955 3.689288-28.401155-9.064199-57.056744-17.61953-83.804082-31.168122-21.785881-23.82135-50.505078-38.864739-74.994316-59.314843-25.506973-21.308818-52.381526-41.186446-71.305028-69.046929-7.823835-11.513122-20.545517-22.262944-13.421375-39.24639 6.297233 0.763301 13.357766-2.385315 18.60546 3.657484 29.069044 43.158307 68.601671 75.439575 110.964873 107.530018-22.326552-26.715533-41.186446-53.685499-58.996801-81.418766-3.466658-5.406715-8.746156-11.004255-3.880113-18.446439z" fill="#16476C" p-id="6004"></path><path d="M506.863621 386.516508c-1.049539-33.744262-10.399975-66.120943-16.283753-99.0701-4.070938-22.708203-5.629344-45.957077-13.135137-67.997391 22.199335 0.031804 44.398671 0.031804 66.566202 0.063608-9.032394 48.819455-17.746747 97.734323-27.351617 146.426562-1.59021 8.01466-1.81284 15.838494-2.448924 23.789545-4.00733 2.480728-7.060534 2.79877-7.346771-3.212224zM837.341119 200.71634c-0.127217 11.131472-0.254434 22.262944-0.349847 33.362611-13.675808 35.875144-33.744262 68.22002-55.848184 99.324534-5.279498 7.41038-10.5908 18.478243-23.312483 9.732087-9.382241-16.697208-26.206665-21.308818-42.840264-26.270274-2.862378-10.527192 5.915582-13.930242 11.958381-18.22381 35.906948-25.602385 66.757027-56.516073 95.317203-89.878684 3.816505-4.484393 7.41038-10.336367 15.075194-8.046464z" fill="#1A547E" p-id="6005"></path><path d="M250.903376 189.743889c7.028729 35.684318 32.59931 58.456129 58.042675 80.432836 31.995031 27.60605 65.707488 53.208436 100.692114 76.997981 2.162686 1.462993 3.721092 3.40305 0.858714 5.788365-7.760226 3.212225-14.343697 0.159021-20.768147-3.7847-37.020095-21.817685-74.231015-43.253719-107.975277-70.223686C250.362705 253.861167 221.675311 226.35053 197.822157 194.005653c-3.975526-5.374911-11.767556-10.336367-6.170015-19.114328 19.750412 4.961456 39.500823 9.891108 59.251234 14.852564zM611.086002 353.122092c5.82017-15.138802 21.436034-18.987111 32.662919-27.637854 41.027425-31.486163 83.231605-61.477529 114.685964-103.522689 7.124142-9.509457 12.976116-19.559586 12.181011-32.090443l62.686089-14.884368c-4.738827 23.248874-23.280678 37.179116-37.942417 52.858589-45.066559 48.215175-97.289064 87.429761-156.953754 116.244371-5.025064 2.41712-9.859304 5.120477-14.629934 8.01466-4.102742 2.035469-8.141877 4.707022-12.689878 1.017734z" fill="#1A547D" p-id="6006"></path><path d="M187.899245 234.174364c-0.159021-1.176756-0.222629-2.353511-0.190825-3.530267-1.971861-8.873373-5.629344-21.976706 1.462993-25.379756 9.064199-4.357176 14.280088 8.587135 20.291084 15.170606 24.966301 27.2244 51.204771 53.049415 81.514178 74.421841 6.042799 4.261764 12.244619 8.300898 17.174271 13.866633 4.897848 5.565736 2.099078 8.650744-3.62568 10.718018-20.736342 1.017735-31.263534 16.156536-42.299593 30.659254-6.647079 0.731497-9.891108-4.102742-13.071528-8.459919-24.362021-33.553437-48.660434-67.202286-61.2549-107.46641z" fill="#1A547E" p-id="6007"></path><path d="M402.863869 212.324875c4.102742 35.938752 19.050719 68.410846 32.662919 101.26459 3.434854 8.332702 7.760226 16.283753 10.20915 25.379756-43.508153-39.087368-78.238345-85.108054-109.183837-134.245551 22.103923 2.544336 44.207845 5.056869 66.311768 7.601205zM684.871758 204.755474c-28.369351 48.946672-63.417585 92.486629-105.589962 130.619872 16.442774-40.550362 32.726527-80.84629 42.872069-123.2731 20.927167-2.41712 41.82253-4.866043 62.717893-7.346772z" fill="#1A547D" p-id="6008"></path><path d="M454.990962 215.91875c11.41771 9.191415 9.954716 23.026245 12.340032 35.302668 7.346771 37.687983 14.152871 75.471379 21.213405 113.572817-7.505792 0-9.22322-5.025064-11.672144-9.096002-23.884958-39.596236-42.713048-81.355157-55.498338-125.912849-3.562071-12.340032 0.540671-15.456844 11.672143-14.407305 7.314967 0.190825 14.629934 0.38165 21.944902 0.540671z" fill="#1A547E" p-id="6009"></path><path d="M588.568624 215.568904c6.074603 1.399385 17.524117-3.180421 13.23055 10.431779-15.80669 50.377861-33.044569 100.119638-69.269559 145.917694 9.318632-50.600491 18.287418-96.939218 26.047644-143.46877 1.367581-8.300898 7.982856-8.205485 11.576731-12.530857 6.138212-0.127217 12.276423-0.254434 18.414634-0.349846z" fill="#1A547D" p-id="6010"></path><path d="M302.776035 316.038389c10.495388-3.339442 0.731497-5.565736-0.763301-6.647079-31.931422-22.99444-61.159487-48.946672-88.63832-77.125198-7.919247-8.110072-11.79936-20.132062-25.665994-26.302078v24.711867c-6.869708-16.601795-2.480728-33.871479-2.830574-50.82312-0.063608-3.40305 3.562071-4.61161 6.8061-4.929652 17.746747 32.058639 43.349132 57.24757 70.191881 81.514179 39.341802 35.557102 84.758207 62.209026 129.85657 89.401621-0.922322 0.826909-2.003665 2.067273-2.989595 1.940057-30.309408-3.911917-57.979066-15.902103-85.489704-28.305743-0.763301-0.349846-0.60428-2.19449-0.477063-3.434854zM622.026648 349.210175c34.380346-20.227475 70.096469-38.165046 101.86887-62.781502 41.568096-32.249464 78.842625-68.474454 109.406467-111.410131 7.79203 7.537597 2.512532 17.174271 4.039134 25.697798-13.103333 13.739417-26.238469 27.447029-39.278194 41.21825-22.485573 23.725937-46.43414 45.798056-73.881169 63.767432-4.198155 2.735162-7.855639 5.979191-9.445849 10.972451 0.159021 5.311302-3.689288 7.79203-7.633009 9.255024-23.662329 8.682548-47.229245 17.587726-71.24142 25.284343-4.738827 1.494798-9.732087 2.067273-13.83483-2.003665z" fill="#17476C" p-id="6011"></path><path d="M755.540703 193.464981c-15.297823 36.288598-46.624965 58.328913-74.676275 83.04078-15.933907 14.025655-33.712458 25.920427-52.699568 37.083704 16.061124-21.690468 32.59931-43.062894 48.056154-65.166817 10.431779-14.947977 23.725937-28.369351 27.733267-47.165636 17.174271-2.607945 34.380346-5.21589 51.586422-7.792031zM317.596795 201.066186c12.085598 29.41889 33.362611 52.858589 51.268379 78.492779 6.933317 9.922912 15.106998 19.018915 22.421965 28.114918-2.480728 3.816505-4.770631 3.466658-6.901513 1.908252-35.779731-26.270274-69.683014-54.735037-99.419946-87.843215-7.314967-8.141877-15.774886-15.933907-15.456844-28.369351 16.02932 2.576141 32.058639 5.152281 48.087959 7.696617zM188.121875 293.489207c-0.031804-7.314967-0.031804-14.661739-0.063609-21.976706 7.219555-1.303972 9.700283 4.643414 12.149207 9.032394 17.969376 32.122247 38.610305 62.272634 63.353977 89.560643 1.20856 1.335777 1.622014 3.275833 2.226294 5.025064 2.003665 15.170606 3.085008 30.309408-0.763301 45.352797-7.378576 8.364506-12.308227 1.113147-15.997515-3.562071-23.694133-30.054974-43.857999-62.209026-57.565612-98.211386-3.116812-8.300898 0.699693-17.206075-3.339441-25.220735zM833.779048 308.5644c-0.127217 2.385315-0.254434 4.802435-0.413455 7.187751-13.039724 37.083703-34.539367 69.364972-57.820045 100.501289-3.40305 4.548001-7.79203 12.944312-15.552257 3.911917-3.625679-15.266019-2.957791-30.563841-0.540671-45.893468 23.725937-31.136317 46.911203-62.654285 67.043265-96.334938 1.303972-2.162686 3.657484-3.148616 7.283163-3.053204 2.41712 11.131472 2.639749 22.358356 0 33.680653zM191.970184 386.23027l-0.381651-33.299003c5.59754-1.494798 7.696618 2.925987 9.763891 6.392645 17.333292 28.878218 35.779731 56.897723 58.83778 81.6732 2.894183 3.116812 4.484393 7.283163 5.59754 11.481318 1.749231 11.735752 2.766966 23.439699-0.795105 35.048234-8.523527 8.650744-13.644004 0.190825-17.3969-4.770631-22.61279-29.832345-43.221915-60.873249-55.625555-96.525763zM833.206572 349.62363c0.031804 8.491723 0.063608 17.01525 0.127217 25.506972-6.8061 43.857999-35.048234 76.298289-59.346647 110.742243-2.79877 3.975526-7.919247 9.00059-13.548592 2.035469-4.070938-12.753486-2.957791-25.665994-1.113147-38.578501 24.80728-30.881883 47.833525-63.035935 67.552132-97.479889 1.272168-2.258099 3.657484-3.053204 6.329037-2.226294z" fill="#1A547D" p-id="6012"></path><path d="M833.779048 308.5644v-33.394415c-23.662329 35.048234-40.486753 70.700749-70.509924 96.462155-6.519862-9.350436-8.905178-19.20974-3.625679-30.02317 11.163276 5.374911 13.866634-4.866043 17.873963-10.590801 17.969376-25.697798 34.698388-52.190701 48.151567-80.62366 2.830574-6.010995 4.61161-12.944312 11.354102-16.315558-1.622014 24.80728 4.484393 49.932602-3.244029 74.485449z" fill="#17476B" p-id="6013"></path><path d="M830.121564 430.978787c-0.190825 8.587135-0.413455 17.174271-0.60428 25.761406-11.036059 35.652514-33.044569 64.944187-54.894058 94.267665-3.180421 4.261764-7.442184 11.322297-14.343697 3.40305-3.7847-12.753486-2.862378-25.63419-0.890518-38.514893 20.927167-27.192596 43.730782-53.049415 60.078144-83.549647 1.876448-3.530267 5.184085-7.155946 10.43178-4.548002 0.349846 0.159021 0.540671 0.922322 0.540671 1.399385 0.031804 0.572476-0.190825 1.176756-0.318042 1.781036zM195.277821 456.835606c-0.095413-1.20856-0.159021-2.385315-0.127217-3.593875-2.925987-8.809765-1.971861-17.492313 1.971861-27.319813 23.153462 30.818275 44.366866 62.558872 68.251825 92.327608 2.544336 11.958381 3.085008 23.884958-0.286238 35.779731-8.746156 9.096003-13.262354 0-17.078859-4.99326-21.658664-28.337547-42.267789-57.406591-52.731372-92.200391z" fill="#1A547D" p-id="6014"></path><path d="M261.780414 516.404882c-27.796875-23.694133-43.667174-56.42066-66.661614-89.783271v26.62012c-7.41038-22.040314-1.908252-44.684909-3.180421-67.043265 19.495978 29.387086 33.903283 61.859179 55.561947 89.910488 4.134547 5.343107 8.141877 10.686213 14.248284 13.898438 7.18775 8.841569 7.219555 17.61953 0.031804 26.39749zM261.844023 449.584247c-28.242134-28.719197-48.819455-63.004131-70.25549-96.65298 2.099078-20.004845-6.010995-39.40541-3.434854-59.410256 10.622605 45.352797 36.765661 82.531913 63.258564 119.456596 2.79877 3.880113 6.869708 6.869708 10.368171 10.272758 7.18775 8.746156 7.155946 17.524117 0.063609 26.333882zM261.685002 371.727552c-25.665994-21.117992-41.504488-49.709973-58.45613-77.379631-4.802435-7.823835-8.523527-16.251949-15.138801-22.83542l-0.190826-37.338137c18.446439 30.150387 33.012765 62.590676 54.576017 90.864615 6.233624 8.173681 11.036059 17.460509 19.305152 23.980371 6.551666 7.601205 6.583471 15.170606-0.095412 22.708202zM763.396341 556.828027c24.393826-25.984036 40.900208-57.24757 58.519738-87.747802 2.41712-4.166351 5.088673-8.237289 7.601205-12.340032-1.399385 29.768736 4.484393 59.760102-3.18042 89.306209v-47.451875c-22.262944 28.401155-35.779731 60.109948-62.940523 80.909899-6.583471-7.569401-6.583471-15.106998 0-22.676399z" fill="#17476B" p-id="6015"></path><path d="M830.121564 430.978787c-13.707613 2.19449-13.707613 15.933907-19.368761 24.362021-13.930242 20.79995-27.351617 41.695313-47.356462 57.374787-6.615275-7.505792-6.551666-15.043389-0.159021-22.644595 30.691058-33.839675 53.367457-72.545392 70.03286-114.940398-1.017735 18.60546-2.099078 37.242724-3.148616 55.848185z" fill="#17466B" p-id="6016"></path><path d="M833.206572 349.62363c-16.888033 27.00177-31.995031 55.212101-52.41333 79.860359-5.056869 6.106407-11.576731 10.972451-17.428705 16.41097-6.551666-7.569401-6.551666-15.138802 0.031804-22.676398 26.62012-27.860484 42.649439-62.654285 62.209026-95.126378 2.512532-4.166351 5.184085-8.237289 7.79203-12.340032-0.095413 11.290493-0.159021 22.580986-0.190825 33.871479zM195.277821 456.835606c18.382831 30.150387 33.585241 62.304438 56.134422 89.84688 3.0214 3.721092 6.869708 6.774296 10.336367 10.113737 7.283163 7.633009 6.710687 16.601795 3.244029 25.316148-2.067273 5.184085-6.010995 11.036059-10.368171 0.922322-1.399385-11.862969-11.131472-18.478243-17.206075-27.383421-13.962046-20.513712-27.955897-40.963817-41.917943-61.445725-0.063608-12.467249-0.159021-24.902693-0.222629-37.369941z" fill="#17476B" p-id="6017"></path><path d="M729.747492 776.086219c20.354691 20.990776 45.861664 27.065379 73.976582 25.729602-6.010995 9.859304-15.075193 15.456844-25.920428 18.573656-24.966301-3.848309-47.992546-11.513122-64.021865-32.82194 1.558406-9.032394 6.933317-12.817095 15.965711-11.481318zM221.230052 801.974842c27.60605 2.003665 50.314253-9.159611 70.796162-26.302077 9.318632-0.954126 16.856229 0.98593 19.050719 11.672143-19.368761 17.078858-40.804795 29.959561-67.170482 32.758331-8.332702-5.088673-17.714942-8.841569-22.676399-18.128397z" fill="#18496E" p-id="6018"></path><path d="M714.672299 786.963257c18.160201 16.569991 41.790726 22.835419 63.131347 33.42622-13.071528 6.8061-27.065379 3.116812-40.677578 3.62568-13.771221-3.466658-25.793211-10.654409-37.719788-17.969376-8.873373-5.438519-10.622605-11.640339-0.318042-17.746747 5.025064-2.162686 9.98652-5.661149 15.584061-1.335777z" fill="#1A537D" p-id="6019"></path><path d="M243.906451 820.103239c23.376091-8.746156 44.335062-22.326552 66.62981-33.20359 5.851974-4.198155 10.654409-0.858714 15.488648 2.162686 7.982856 8.809765 0.477063 13.103333-5.438519 17.269684-12.117402 8.523527-25.888623 13.548591-39.946082 17.842159-12.435444 0.477063-24.902693 1.017735-36.733857-4.070939z" fill="#1A547D" p-id="6020"></path><path d="M544.233562 823.983352c-6.20182 0.095413-12.435444 0.159021-18.637264 0.254434-1.653819-1.749231-4.070938-3.0214-5.152281-4.99326-6.933317-12.499053-13.548591-13.230549-20.799951-0.190825-1.399385 2.544336-5.088673 3.053204-7.378575 5.025064l-18.669069 0.095413c0.254434-13.675808 7.537597-23.694133 17.01525-32.567507 12.212815-3.339442 24.42563-3.148616 36.702053-0.254433 10.622605 8.269093 20.895363 16.760816 16.919837 32.631114z" fill="#18496F" p-id="6021"></path><path d="M640.504892 824.110569c-14.788955-0.031804-29.546107-0.063608-44.335063-0.127217-7.028729-9.414045-19.81402-16.347362-13.580395-31.486163 8.459919-3.975526 17.174271-3.212225 25.920427-1.272168 12.308227 9.350436 26.874554 16.506383 31.995031 32.885548zM421.660155 824.174178c-13.580396 0-27.160791 0-40.741187-0.031804 2.258099-18.923502 19.623195-23.248874 31.645184-32.758332 8.682548-2.130882 17.365096-2.735162 25.888623 0.763301 5.056869 16.251949-7.155946 23.471504-16.79262 32.026835zM703.668044 824.205982c-13.580396-0.063608-27.192596-0.127217-40.772992-0.159021-10.177346-4.643414-17.842159-12.62627-25.920427-19.941237-3.339442-3.0214-7.919247-6.933317-1.908252-11.958381 8.428114-3.498463 17.047054-2.766966 25.697798-1.049539 15.584061 9.350436 34.443954 14.502718 42.903873 33.108178zM354.871323 824.174178c-12.371836 0.031804-24.775476 0.063608-37.147311 0.063608-1.844644-8.205485 4.834239-10.622605 9.827499-13.484983 10.113737-5.82017 18.637264-14.025655 29.100848-19.336957 8.682548-2.226294 17.333292-2.766966 25.888623 0.572476 7.41038 11.576731-4.643414 15.138802-9.127807 21.690468-4.357176 6.392645-12.181011 7.346771-18.541852 10.495388zM544.233562 823.983352c-1.20856-11.608535-11.131472-18.796285-14.788955-29.164456 9.509457-8.269093 20.163866-5.692953 30.850079-3.434854 9.668478 8.841569 20.704538 17.047054 17.269683 32.82194-11.131472-0.063608-22.23114-0.127217-33.330807-0.22263zM488.353573 794.723484c-1.685623 11.449514-8.841569 20.132062-14.757151 29.450694l-33.267199-0.095413c0.795105-15.043389 9.477653-24.966301 21.245209-32.917352 9.318632-1.781036 18.700873-3.848309 26.779141 3.562071z" fill="#1A547D" p-id="6022"></path><path d="M355.030344 794.882505c-8.682548 14.59813-27.542442 16.188341-37.338137 29.355281l-37.083703-0.095412c10.113737-8.968786 23.725937-11.862969 34.443954-19.495978 4.261764-3.053204 14.725347-3.339442 9.954717-13.6122 10.877038-5.152281 20.736342-2.957791 30.023169 3.848309zM703.668044 824.205982c-13.644004-9.827499-27.288008-19.654999-40.900208-29.482498 11.862969-6.996925 24.107588-9.98652 37.306332-3.752897-5.056869 4.229959-7.219555 7.41038 0.795106 11.608535 12.435444 6.488058 24.203 14.248284 36.256794 21.467839-11.163276 0.031804-22.326552 0.095413-33.458024 0.159021zM633.348946 794.914309c9.191415 10.368171 22.421965 16.633599 29.546106 29.132652l-22.39016 0.095413c-9.064199-10.622605-22.326552-16.951641-29.768736-29.259869 7.569401-6.583471 15.106998-6.615275 22.61279 0.031804zM354.871323 824.174178c10.527192-9.159611 21.690468-17.651334 29.577911-29.450694 8.746156-7.028729 17.492313-7.060534 26.23847 0.063608-7.728422 12.02199-23.439699 15.933907-29.768736 29.355282-8.714352 0-17.365096 0.031804-26.047645 0.031804zM577.532565 824.237786c-1.367581-11.640339-13.198745-17.969376-15.011585-29.387086 6.265428-5.724757 12.562661-5.692953 18.859894-0.031804 3.657484 10.368171 13.6122 17.555921 14.788955 29.164456-6.20182 0.095413-12.435444 0.159021-18.637264 0.254434zM458.902879 794.818896c-6.20182 9.763891-12.371836 19.527782-18.573656 29.259869l-18.669068 0.095413c6.138212-9.763891 12.276423-19.527782 18.38283-29.291673 6.265428-5.756561 12.562661-5.724757 18.859894-0.063609z" fill="#18496F" p-id="6023"></path><path d="M492.265491 824.078765c0.954126-1.526602 1.59021-3.371246 2.894182-4.548001 6.233624-5.629344 6.488058-20.132062 14.375501-18.859894 9.509457 1.558406 12.753486 14.089263 16.061124 23.566916-11.099668-0.063608-22.23114-0.095413-33.330807-0.159021z" fill="#1A537D" p-id="6024"></path><path d="M458.902879 794.818896l-18.859894 0.095413-29.387085-0.095413c-8.746156-0.031804-17.492313-0.031804-26.23847-0.063608-9.795695 0.063608-19.591391 0.095413-29.387086 0.159021l-29.991365-3.816505c-4.834239-1.367581-9.700283-2.766966-14.534522-4.166351-6.170016-3.752896-12.340032-7.473988-18.510048-11.226884-5.056869-6.20182-11.767556-11.672143-14.852563-18.732677-7.378576-16.919837-15.80669-30.277604-37.687984-25.952232-5.247694 1.049539-9.891108-2.766966-9.859304-8.682548 0.063608-7.028729 5.152281-8.936982 11.41771-9.191415 12.181011-0.508867 23.916762 6.392645 37.783396 1.622014-11.19508-15.234214-28.782806-22.740007-43.126502-38.451284 14.566326 3.466658 25.952232 3.689288 40.327732 2.830574-11.481318-9.795695-20.990776-17.937572-33.585241-28.655589 13.99385-0.667888 24.457434-1.144951 38.960152-1.844644-14.025655-11.163276-25.157126-20.036649-38.133242-30.341212 11.831164-2.735162 20.990776-4.866043 32.440289-7.505792-10.749821-4.834239-20.004845-8.110072-28.305743-13.039724-4.770631-2.862378-16.283753-0.731497-12.721682-11.41771 3.943721-11.703948 12.530857-6.297233 19.877629-3.275833 3.911917 3.657484 6.869708 2.576141 7.155946-2.448924 0.477063-7.887443 0.031804-15.838494-0.031804-23.789546 0-13.484983 0.031804-26.938162 0.031804-40.423145v-26.365686c0-13.484983 0.031804-26.969966 0.031804-40.454949l-0.095413-26.365686c-0.031804-17.174271-0.031804-34.348542-0.063608-51.491009l0.095413-22.708202c5.661149-20.927167 19.464174-31.740597 40.963816-33.012766 29.736932 9.700283 58.360717 22.644594 88.956362 29.800541l18.796286 7.155946c31.517968 12.880703 63.067739 25.761406 96.366742 33.553437 1.717427 2.766966 4.325372 3.466658 7.346771 3.212224 31.931422-13.166941 65.961922-20.736342 96.843806-36.60664l10.972451-3.911917c32.090443-7.473988 62.62248-19.400565 92.709258-32.535702 20.79995-2.162686 36.733857 4.38898 44.875734 24.934497 2.703357 9.827499 4.039134 19.81402 3.625679 29.991365 0.063608 17.206075 0.095413 34.41215 0.159021 51.618226 0 7.569401-0.031804 15.106998-0.031804 22.676398l-0.095412 44.176041c0.031804 7.537597 0.095413 15.106998 0.127216 22.644595 0 14.693543-0.031804 29.387086-0.031804 44.112432v22.676399c4.643414 11.862969 10.718017 1.462993 15.80669 0.636084 5.724757-0.954126 9.891108-0.190825 12.212815 5.152281 2.862378 6.583471-2.289903 8.777961-6.837904 10.686213-10.718017 4.484393-21.595055 8.682548-35.970556 14.439109 12.117402 2.830574 20.927167 4.866043 30.945492 7.219555-6.360841 14.788955-23.662329 16.79262-33.64885 30.786471h34.348542c-4.770631 15.393235-20.577321 16.79262-26.39749 30.02317 11.004255 2.003665 21.340622 1.717427 34.952821-3.116812-12.530857 17.810355-30.373016 24.711868-43.317327 40.041494 12.308227 1.622014 22.135727 0.954126 32.249464-1.399385 7.855639-1.81284 17.460509-2.544336 18.160201 9.159611 0.636084 10.908842-9.127807 8.746156-14.916172 8.01466-15.234214-1.971861-23.535112 4.134547-29.291673 18.160201-4.38898 10.654409-11.703948 20.259279-21.944902 26.810945l-15.075193 10.877039-14.598131 4.00733c-12.371836 1.749231-24.648259 4.770631-37.306333 3.752896l-29.418889 0.190825c-7.537597 0-15.075193-0.031804-22.61279-0.031804-9.795695 0-19.591391-0.031804-29.387086-0.031804-6.297233 0-12.562661 0-18.859894 0.031804h-33.076374c-13.675808-0.031804-27.383421-0.095413-41.059229-0.127217-9.668478-0.031804-19.464174 0-29.291673 0.031804z" fill="#123450" p-id="6025"></path><path d="M327.201665 733.627605c-7.124142-14.121067-22.421965-17.492313-30.881884-31.23173 11.831164-1.240364 22.262944-1.144951 36.193186 3.275834-13.00792-17.460509-30.722862-24.552847-43.826195-40.327733h45.22558c-18.700873-13.771221-33.171786-24.457434-48.787651-35.938752 15.106998-8.269093 31.263534-5.025064 47.579091-12.499053-15.743082-6.837904-29.450694-13.325962-43.571761-18.732677-8.746156-3.371246-12.117402-8.269093-12.053794-17.905767 0.38165-72.958847 0-145.949498 0.286238-218.908346 0.095413-23.312483 12.848899-31.995031 35.493493-24.107587 61.763767 21.467839 123.432121 43.285523 184.973259 65.389446 9.795695 3.530267 18.446439 3.880113 28.432959 0.254434 60.300773-21.913097 120.85598-43.126502 181.252166-64.753363 26.62012-9.541262 37.560767-2.353511 37.560767 25.316148 0 71.114203-0.38165 142.228406 0.254434 213.342609 0.127217 13.198745-3.466658 20.736342-16.188341 24.870889-11.576731 3.752896-22.61279 9.22322-38.737522 15.997515 19.273348 3.752896 33.680653 6.583471 52.317918 10.240954-17.01525 12.467249-30.977296 22.708203-49.264714 36.097774h40.772991l1.622014 3.721092c-13.771221 11.449514-27.542442 22.930832-43.19011 35.938752 14.566326-1.144951 26.461099-2.067273 41.949746-3.244029-13.930242 11.767556-25.284343 21.40423-39.087368 33.044569 16.79262 3.0214 29.991366-4.99326 45.130167 0.38165-9.318632 21.976706-25.061714 36.065969-47.706308 41.790726-10.050129 2.544336-20.768146 3.275833-31.168121 3.307638-102.663975 0.222629-205.296146 0.286238-307.96012 0-23.089853-0.063608-43.953412-7.41038-59.251235-25.602386-4.420785-5.247694-12.753486-11.449514-8.332702-18.891698 3.562071-6.042799 12.562661-2.448924 19.050719-2.003665 6.710687 0.445259 13.262354 3.180421 21.913098 1.176756z" fill="#3E7590" p-id="6026"></path><path d="M685.380626 548.399913c0.445259 6.583471-0.445259 13.898438-5.247694 17.333292-13.930242 10.018325-18.987111 24.743672-26.429295 39.150977-15.266019 29.482498-56.229835 29.228065-72.259155-0.031804-6.615275-12.053794-14.121067-14.629934-26.270273-14.375501-29.037239 0.636084-58.106283 0.477063-87.175327 0.063608-9.096003-0.127217-14.661739 2.385315-18.700873 11.226885-8.01466 17.61953-23.503308 26.365686-41.981551 24.457434-19.718607-2.067273-34.666584-12.880703-38.165046-34.507563-1.176756-7.378576-5.056869-11.831164-11.958382-14.947977-13.739417-6.265428-21.054384-17.746747-19.177935-32.662919 1.81284-14.534522 10.463584-25.125322 25.347951-28.59198 14.629934-3.434854 26.651924 1.176756 35.207256 13.866633 0.349846 0.508867 0.572476 1.494798 0.954126 1.526602 35.366276 5.311302 49.582756 53.24024 92.454825 45.002951 16.092928-3.085008 33.299003-0.826909 49.996211-0.413455 17.937572 0.413455 36.129577 2.766966 43.41274-20.291083 1.240364-3.911917 6.8061-7.951051 11.131472-9.159611 15.20241-4.293568 26.747337-12.721682 37.274528-24.584651 9.318632-10.495388 23.280678-8.173681 34.602976-3.212225 12.181011 5.311302 17.905768 16.506383 16.983446 30.150387z" fill="#123450" p-id="6027"></path><path d="M512.588378 738.938907c-20.990776 0-41.981551 0.286238-62.972327-0.095412-19.336957-0.38165-31.0091-11.19508-32.026835-28.655589-1.081343-18.351026 9.98652-32.980961 29.323478-33.489829 43.190111-1.144951 86.44383-1.144951 129.602137 0.095413 19.177936 0.540671 31.263534 15.584061 30.691058 32.885548-0.572476 17.714942-13.135137 28.910023-33.489828 29.228065-20.386496 0.254434-40.741187 0.031804-61.127683 0.031804z" fill="#143551" p-id="6028"></path><path d="M617.987514 609.845638c-14.979781 0.254434-26.969966-11.354101-27.192595-26.302078-0.222629-15.170606 10.972451-26.365686 26.524707-26.524707 15.870298-0.159021 26.715533 10.20915 27.00177 25.825014 0.254434 15.106998-11.099668 26.715533-26.333882 27.001771zM437.435041 583.575364c-0.222629 15.297823-12.149206 26.683728-27.510638 26.23847-15.552256-0.445259-25.888623-11.862969-25.347952-27.955897 0.508867-15.266019 10.5908-24.80728 26.143057-24.839084 15.933907-0.031804 26.938162 10.940647 26.715533 26.556511z" fill="#FEFEFE" p-id="6029"></path><path d="M369.978321 530.971208c9.445849-0.731497 18.00118 4.738827 16.760816 12.403641-1.399385 8.650744-9.318632 18.382831-18.573656 19.81402-7.919247 1.240364-13.421375-6.519862-13.38957-15.933907 0.031804-10.336367 4.961456-15.711277 15.20241-16.283754z" fill="#8CCEE6" p-id="6030"></path><path d="M653.671833 530.939404c10.145542 0.540671 15.870298 6.138212 16.379166 16.092928 0.413455 8.332702-6.329037 17.937572-11.767556 15.266019-8.269093-4.070938-18.637264-11.41771-19.973041-21.690468-0.858714-6.456254 7.601205-10.20915 15.361431-9.668479z" fill="#8ACDE5" p-id="6031"></path><path d="M512.047706 723.22763c-19.114327 0-38.228655-0.095413-57.342982 0.031804-10.781626 0.063608-20.831755-2.226294-21.40423-14.852564-0.60428-13.453179 9.732087-15.106998 20.513712-15.075193 38.832935 0.095413 77.665869 0.159021 116.498805-0.063609 11.131472-0.063608 20.640929 2.79877 20.609125 15.329627-0.063608 11.640339-9.541262 14.502718-19.718608 14.502718h-59.187626c0.031804 0.063608 0.031804 0.095413 0.031804 0.127217z" fill="#FDFDFE" p-id="6032"></path></svg>